<svg width="68" height="68" viewBox="0 0 68 68" fill="none" xmlns="http://www.w3.org/2000/svg">
<g filter="url(#filter0_dd_1740_69770)">
<mask id="mask0_1740_69770" style="mask-type:alpha" maskUnits="userSpaceOnUse" x="6" y="4" width="56" height="56">
<path d="M11 4H57.0588L62 8.94118V55.0588L57.0588 60H11L6 55V9L11 4Z" fill="url(#paint0_linear_1740_69770)"/>
</mask>
<g mask="url(#mask0_1740_69770)">
<rect width="79.196" height="79.196" transform="matrix(0.866025 0.5 0.5 -0.866025 -20.0918 46.4939)" fill="url(#paint1_linear_1740_69770)"/>
</g>
</g>
<g clip-path="url(#clip0_1740_69770)">
<path d="M34.0002 22.8571C34.421 22.8571 34.7621 22.5159 34.7621 22.0952C34.7621 21.6744 34.421 21.3333 34.0002 21.3333C33.5794 21.3333 33.2383 21.6744 33.2383 22.0952C33.2383 22.5159 33.5794 22.8571 34.0002 22.8571Z" fill="#646464" stroke="#646464" stroke-width="2" stroke-linecap="round" stroke-linejoin="round"/>
<path d="M34.0002 32.7618C34.421 32.7618 34.7621 32.4207 34.7621 31.9999C34.7621 31.5792 34.421 31.238 34.0002 31.238C33.5794 31.238 33.2383 31.5792 33.2383 31.9999C33.2383 32.4207 33.5794 32.7618 34.0002 32.7618Z" fill="#646464" stroke="#646464" stroke-width="2" stroke-linecap="round" stroke-linejoin="round"/>
<path d="M34.0002 42.6666C34.421 42.6666 34.7621 42.3255 34.7621 41.9047C34.7621 41.4839 34.421 41.1428 34.0002 41.1428C33.5794 41.1428 33.2383 41.4839 33.2383 41.9047C33.2383 42.3255 33.5794 42.6666 34.0002 42.6666Z" fill="#646464" stroke="#646464" stroke-width="2" stroke-linecap="round" stroke-linejoin="round"/>
</g>
<defs>
<filter id="filter0_dd_1740_69770" x="0" y="0" width="68" height="68" filterUnits="userSpaceOnUse" color-interpolation-filters="sRGB">
<feFlood flood-opacity="0" result="BackgroundImageFix"/>
<feColorMatrix in="SourceAlpha" type="matrix" values="0 0 0 0 0 0 0 0 0 0 0 0 0 0 0 0 0 0 127 0" result="hardAlpha"/>
<feOffset dy="2"/>
<feGaussianBlur stdDeviation="3"/>
<feComposite in2="hardAlpha" operator="out"/>
<feColorMatrix type="matrix" values="0 0 0 0 0 0 0 0 0 0 0 0 0 0 0 0 0 0 0.3 0"/>
<feBlend mode="normal" in2="BackgroundImageFix" result="effect1_dropShadow_1740_69770"/>
<feColorMatrix in="SourceAlpha" type="matrix" values="0 0 0 0 0 0 0 0 0 0 0 0 0 0 0 0 0 0 127 0" result="hardAlpha"/>
<feOffset/>
<feGaussianBlur stdDeviation="1"/>
<feComposite in2="hardAlpha" operator="out"/>
<feColorMatrix type="matrix" values="0 0 0 0 0 0 0 0 0 0 0 0 0 0 0 0 0 0 0.1 0"/>
<feBlend mode="normal" in2="effect1_dropShadow_1740_69770" result="effect2_dropShadow_1740_69770"/>
<feBlend mode="normal" in="SourceGraphic" in2="effect2_dropShadow_1740_69770" result="shape"/>
</filter>
<linearGradient id="paint0_linear_1740_69770" x1="17.5294" y1="-3" x2="73.2685" y2="16.8966" gradientUnits="userSpaceOnUse">
<stop stop-color="white"/>
<stop offset="0.724931" stop-color="#E1E2E0"/>
<stop offset="1" stop-color="#C8C9C7"/>
</linearGradient>
<linearGradient id="paint1_linear_1740_69770" x1="0.544062" y1="40.4745" x2="49.7272" y2="2.44086" gradientUnits="userSpaceOnUse">
<stop stop-color="white"/>
<stop offset="0.75" stop-color="#E1E2E0"/>
<stop offset="1" stop-color="#C8C9C7"/>
</linearGradient>
<clipPath id="clip0_1740_69770">
<rect width="32" height="32" fill="white" transform="translate(18 16)"/>
</clipPath>
</defs>
</svg>
