<svg width="68" height="68" viewBox="0 0 68 68" fill="none" xmlns="http://www.w3.org/2000/svg">
<g filter="url(#filter0_dd_1740_69716)">
<mask id="mask0_1740_69716" style="mask-type:alpha" maskUnits="userSpaceOnUse" x="6" y="4" width="56" height="56">
<path d="M11 4H57.0588L62 8.94118V55.0588L57.0588 60H11L6 55V9L11 4Z" fill="url(#paint0_linear_1740_69716)"/>
</mask>
<g mask="url(#mask0_1740_69716)">
<rect width="79.196" height="79.196" transform="matrix(0.866025 0.5 0.5 -0.866025 -20.0918 46.4939)" fill="url(#paint1_linear_1740_69716)"/>
</g>
</g>
<g clip-path="url(#clip0_1740_69716)">
<rect x="19.7617" y="23.0952" width="28.4762" height="17.8095" rx="1" stroke="#646464" stroke-width="2"/>
<path d="M20.2861 27.4285H47.3338" stroke="#646464" stroke-width="2" stroke-linecap="round"/>
<path d="M20.2861 36.5715H47.3338" stroke="#646464" stroke-width="2" stroke-linecap="round"/>
<path d="M24.0957 24.3809V27.4285" stroke="#646464" stroke-width="2" stroke-linecap="round"/>
<path d="M24.0957 36.5715V39.6192" stroke="#646464" stroke-width="2" stroke-linecap="round"/>
<path d="M32.4766 24.3809V27.4285" stroke="#646464" stroke-width="2" stroke-linecap="round"/>
<path d="M32.4766 36.5715V39.6192" stroke="#646464" stroke-width="2" stroke-linecap="round"/>
<path d="M37.8096 24.3809V27.4285" stroke="#646464" stroke-width="2" stroke-linecap="round"/>
<path d="M37.8096 36.5715V39.6192" stroke="#646464" stroke-width="2" stroke-linecap="round"/>
<path d="M43.1426 24.3809V27.4285" stroke="#646464" stroke-width="2" stroke-linecap="round"/>
<path d="M43.1426 36.5715V39.6192" stroke="#646464" stroke-width="2" stroke-linecap="round"/>
<path d="M27.9043 21.3333L27.9043 42.6666" stroke="#FFCC00" stroke-width="2" stroke-linecap="round"/>
<path d="M26.0542 18.2856L29.7352 18.2856C30.1821 18.2856 30.4045 18.8271 30.0867 19.1412L28.2251 20.9817C28.0287 21.1759 27.7121 21.174 27.518 20.9776L25.6986 19.1371C25.3864 18.8213 25.6102 18.2856 26.0542 18.2856Z" stroke="#FFCC00" stroke-width="2" stroke-linecap="round"/>
<path d="M26.0542 45.7144L29.7352 45.7144C30.1821 45.7144 30.4045 45.1729 30.0867 44.8588L28.2251 43.0183C28.0287 42.8241 27.7121 42.826 27.518 43.0224L25.6986 44.8629C25.3864 45.1787 25.6102 45.7144 26.0542 45.7144Z" stroke="#FFCC00" stroke-width="2" stroke-linecap="round"/>
</g>
<defs>
<filter id="filter0_dd_1740_69716" x="0" y="0" width="68" height="68" filterUnits="userSpaceOnUse" color-interpolation-filters="sRGB">
<feFlood flood-opacity="0" result="BackgroundImageFix"/>
<feColorMatrix in="SourceAlpha" type="matrix" values="0 0 0 0 0 0 0 0 0 0 0 0 0 0 0 0 0 0 127 0" result="hardAlpha"/>
<feOffset dy="2"/>
<feGaussianBlur stdDeviation="3"/>
<feComposite in2="hardAlpha" operator="out"/>
<feColorMatrix type="matrix" values="0 0 0 0 0 0 0 0 0 0 0 0 0 0 0 0 0 0 0.3 0"/>
<feBlend mode="normal" in2="BackgroundImageFix" result="effect1_dropShadow_1740_69716"/>
<feColorMatrix in="SourceAlpha" type="matrix" values="0 0 0 0 0 0 0 0 0 0 0 0 0 0 0 0 0 0 127 0" result="hardAlpha"/>
<feOffset/>
<feGaussianBlur stdDeviation="1"/>
<feComposite in2="hardAlpha" operator="out"/>
<feColorMatrix type="matrix" values="0 0 0 0 0 0 0 0 0 0 0 0 0 0 0 0 0 0 0.1 0"/>
<feBlend mode="normal" in2="effect1_dropShadow_1740_69716" result="effect2_dropShadow_1740_69716"/>
<feBlend mode="normal" in="SourceGraphic" in2="effect2_dropShadow_1740_69716" result="shape"/>
</filter>
<linearGradient id="paint0_linear_1740_69716" x1="17.5294" y1="-3" x2="73.2685" y2="16.8966" gradientUnits="userSpaceOnUse">
<stop stop-color="white"/>
<stop offset="0.724931" stop-color="#E1E2E0"/>
<stop offset="1" stop-color="#C8C9C7"/>
</linearGradient>
<linearGradient id="paint1_linear_1740_69716" x1="0.544062" y1="40.4745" x2="49.7272" y2="2.44086" gradientUnits="userSpaceOnUse">
<stop stop-color="white"/>
<stop offset="0.75" stop-color="#E1E2E0"/>
<stop offset="1" stop-color="#C8C9C7"/>
</linearGradient>
<clipPath id="clip0_1740_69716">
<rect width="32" height="32" fill="white" transform="translate(18 16)"/>
</clipPath>
</defs>
</svg>
