<svg width="14" height="20" viewBox="0 0 14 20" fill="none" xmlns="http://www.w3.org/2000/svg">
<path d="M9.80349 6.05335C9.80349 7.57387 8.54875 8.8069 7.00145 8.8069C5.45415 8.8069 4.19941 7.57387 4.19941 6.05335C4.19941 4.53282 5.45415 3.29979 7.00145 3.29979C8.54875 3.29979 9.80349 4.53282 9.80349 6.05335ZM12.209 2.89091C11.1363 1.15956 9.36141 0.111803 7.33952 0.00958313C7.11847 -0.00319438 6.89093 -0.00319438 6.66338 0.00958313C4.63499 0.111803 2.86015 1.15956 1.79394 2.89091C0.701726 4.65421 0.571701 6.82639 1.44287 8.69829L6.7479 19.8403C6.79341 19.9361 6.89093 20 7.00145 20C7.11197 20 7.20949 19.9361 7.255 19.8403L12.56 8.69829C13.4312 6.82639 13.2947 4.6606 12.2025 2.89091" fill="#3BB45F" fill-opacity="0.5"/>
</svg>
