<svg width="68" height="68" viewBox="0 0 68 68" fill="none" xmlns="http://www.w3.org/2000/svg">
<g filter="url(#filter0_dd_1782_53576)">
<mask id="mask0_1782_53576" style="mask-type:alpha" maskUnits="userSpaceOnUse" x="6" y="4" width="56" height="56">
<path d="M11 4H57.0588L62 8.94118V55.0588L57.0588 60H11L6 55V9L11 4Z" fill="url(#paint0_linear_1782_53576)"/>
</mask>
<g mask="url(#mask0_1782_53576)">
<rect width="79.196" height="79.196" transform="matrix(0.866025 0.5 0.5 -0.866025 -20.0918 46.4939)" fill="url(#paint1_linear_1782_53576)"/>
</g>
</g>
<g clip-path="url(#clip0_1782_53576)">
<path d="M32.4761 45.1993V21.1084C32.4761 20.6507 31.9121 20.4335 31.6051 20.7731L20.5922 32.957C20.4186 33.149 20.4203 33.4418 20.596 33.6318L31.609 45.5388C31.9179 45.8727 32.4761 45.6542 32.4761 45.1993Z" stroke="#646464" stroke-width="2" stroke-linecap="round"/>
<path d="M46.1904 45.1993V21.1084C46.1904 20.6507 45.6264 20.4335 45.3195 20.7731L34.3065 32.957C34.133 33.149 34.1346 33.4418 34.3104 33.6318L45.3234 45.5388C45.6323 45.8727 46.1904 45.6542 46.1904 45.1993Z" stroke="#646464" stroke-width="2" stroke-linecap="round"/>
</g>
<defs>
<filter id="filter0_dd_1782_53576" x="0" y="0" width="68" height="68" filterUnits="userSpaceOnUse" color-interpolation-filters="sRGB">
<feFlood flood-opacity="0" result="BackgroundImageFix"/>
<feColorMatrix in="SourceAlpha" type="matrix" values="0 0 0 0 0 0 0 0 0 0 0 0 0 0 0 0 0 0 127 0" result="hardAlpha"/>
<feOffset dy="2"/>
<feGaussianBlur stdDeviation="3"/>
<feComposite in2="hardAlpha" operator="out"/>
<feColorMatrix type="matrix" values="0 0 0 0 0 0 0 0 0 0 0 0 0 0 0 0 0 0 0.3 0"/>
<feBlend mode="normal" in2="BackgroundImageFix" result="effect1_dropShadow_1782_53576"/>
<feColorMatrix in="SourceAlpha" type="matrix" values="0 0 0 0 0 0 0 0 0 0 0 0 0 0 0 0 0 0 127 0" result="hardAlpha"/>
<feOffset/>
<feGaussianBlur stdDeviation="1"/>
<feComposite in2="hardAlpha" operator="out"/>
<feColorMatrix type="matrix" values="0 0 0 0 0 0 0 0 0 0 0 0 0 0 0 0 0 0 0.1 0"/>
<feBlend mode="normal" in2="effect1_dropShadow_1782_53576" result="effect2_dropShadow_1782_53576"/>
<feBlend mode="normal" in="SourceGraphic" in2="effect2_dropShadow_1782_53576" result="shape"/>
</filter>
<linearGradient id="paint0_linear_1782_53576" x1="17.5294" y1="-3" x2="73.2685" y2="16.8966" gradientUnits="userSpaceOnUse">
<stop stop-color="white"/>
<stop offset="0.724931" stop-color="#E1E2E0"/>
<stop offset="1" stop-color="#C8C9C7"/>
</linearGradient>
<linearGradient id="paint1_linear_1782_53576" x1="0.544062" y1="40.4745" x2="49.7272" y2="2.44086" gradientUnits="userSpaceOnUse">
<stop stop-color="white"/>
<stop offset="0.75" stop-color="#E1E2E0"/>
<stop offset="1" stop-color="#C8C9C7"/>
</linearGradient>
<clipPath id="clip0_1782_53576">
<rect width="32" height="32" fill="white" transform="translate(18 16)"/>
</clipPath>
</defs>
</svg>
