<svg width="196" height="34" viewBox="0 0 196 34" fill="none" xmlns="http://www.w3.org/2000/svg">
<g clip-path="url(#clip0_1740_69440)">
<path d="M58.4649 9.34579V0.977539H50.9229V29.24L58.4649 9.34579Z" fill="#646464"/>
<path d="M49.4958 33.0055V20.0685L40.1071 0.977539H38.2646V13.7488L47.9975 33.014H49.4916L49.4958 33.0055Z" fill="#646464"/>
<path d="M36.8369 0.977539H29.3662V33.014H36.8369V0.977539Z" fill="#646464"/>
<path d="M101.673 33.014V26.6815H88.6203V0.977539H80.1885V14.8198L87.1219 33.014H101.673Z" fill="#646464"/>
<path d="M138.48 7.76904V0.977539H123.623H114.23H113.924L107.804 13.8295L101.593 0.977539H91.8936L103.586 20.944V33.014H112.018V20.944L119.942 7.31004H128.869L113.823 26.2225V33.014H136.814L137.225 26.6815H122.977L138.48 7.76904Z" fill="#646464"/>
<path d="M160.876 9.1928C160.876 2.2143 154.35 0.425049 148.457 0.425049C145.229 0.425049 142.585 0.833049 139.912 1.58105V7.9433C141.721 7.18255 144.319 6.75755 147.009 6.75755C149.548 6.75755 152.448 7.35255 152.448 10.4296C152.448 13.0476 149.229 13.9656 147.282 13.9656C146.102 13.9656 145.108 14.0123 143.656 13.8721V19.5628C144.654 19.5161 145.83 19.4693 147.189 19.4693C149.183 19.4693 152.948 19.8348 152.948 23.1413C152.948 26.4478 149.049 27.2256 146.556 27.2256C143.563 27.2256 140.755 26.9026 138.716 25.7126L138.309 32.4616C140.575 33.2861 144.021 33.5623 147.555 33.5623C153.72 33.5623 161.38 31.4968 161.38 23.6003C161.38 19.6053 158.886 17.0808 155.08 16.3031V16.2095C158.572 15.2448 160.88 12.8606 160.88 9.18855" fill="#FFCC00"/>
<path d="M178.784 10.5699C178.784 14.1951 175.338 14.2886 172.619 14.2886H170.399V7.03389H172.619C175.838 7.03389 178.784 7.58639 178.784 10.5699ZM187.216 9.05264C187.216 3.54464 182.637 0.973389 177.017 0.973389H161.967V33.0099H170.399V20.3406H172.166C175.292 20.3406 176.379 21.7176 178.104 27.2256L179.917 33.0099H188.71L185.629 24.2889C184.043 20.3874 183.863 17.9564 181.143 17.2211V17.1276C185.222 16.1629 187.216 13.3196 187.216 9.04839" fill="#646464"/>
<path d="M22.7643 0.977539H16.9473L29.3746 33.014H34.9608L22.7643 0.977539Z" fill="#646464"/>
<path d="M10.9168 5.01514L7.19824 14.9346L14.2114 33.0141H21.7786L10.9168 5.01514Z" fill="#646464"/>
<path d="M6.67345 33.0141L3.49213 24.8201L0.419922 33.0141H6.67345Z" fill="#646464"/>
<path d="M73.3307 0.977539H67.5137L79.941 33.014H85.523L73.3307 0.977539Z" fill="#FFCC00"/>
<path d="M61.4822 5.01514L57.7637 14.9346L64.7769 33.0141H72.3441L61.4822 5.01514Z" fill="#646464"/>
<path d="M57.2347 33.0141L54.0576 24.8201L50.9854 33.0141H57.2347Z" fill="#646464"/>
<path d="M194.368 6.90639H195.207V0.977639H194.368V6.91064V6.90639ZM191.741 4.71764H189.407L190.574 1.77664L191.741 4.71764ZM187.661 6.90639H188.543L189.138 5.41039H192.009L192.605 6.90639H193.52L191.044 0.973389H190.163L187.661 6.90639Z" fill="#646464"/>
</g>
<defs>
<clipPath id="clip0_1740_69440">
<rect width="196" height="34" fill="white"/>
</clipPath>
</defs>
</svg>
