<svg width="68" height="68" viewBox="0 0 68 68" fill="none" xmlns="http://www.w3.org/2000/svg">
<g filter="url(#filter0_dd_1782_53607)">
<mask id="mask0_1782_53607" style="mask-type:alpha" maskUnits="userSpaceOnUse" x="6" y="4" width="56" height="56">
<path d="M11 4H57.0588L62 8.94118V55.0588L57.0588 60H11L6 55V9L11 4Z" fill="url(#paint0_linear_1782_53607)"/>
</mask>
<g mask="url(#mask0_1782_53607)">
<rect width="79.196" height="79.196" transform="matrix(0.866025 0.5 0.5 -0.866025 -20.0918 46.4939)" fill="url(#paint1_linear_1782_53607)"/>
</g>
</g>
<path d="M35.5239 45.1993V21.1084C35.5239 20.6507 36.0879 20.4335 36.3949 20.7731L47.4078 32.957C47.5814 33.149 47.5797 33.4418 47.404 33.6318L36.391 45.5388C36.0821 45.8727 35.5239 45.6542 35.5239 45.1993Z" stroke="#646464" stroke-width="2" stroke-linecap="round"/>
<path d="M21.8096 45.1993V21.1084C21.8096 20.6507 22.3736 20.4335 22.6805 20.7731L33.6935 32.957C33.8671 33.149 33.8654 33.4418 33.6896 33.6318L22.6766 45.5388C22.3677 45.8727 21.8096 45.6542 21.8096 45.1993Z" stroke="#646464" stroke-width="2" stroke-linecap="round"/>
<defs>
<filter id="filter0_dd_1782_53607" x="0" y="0" width="68" height="68" filterUnits="userSpaceOnUse" color-interpolation-filters="sRGB">
<feFlood flood-opacity="0" result="BackgroundImageFix"/>
<feColorMatrix in="SourceAlpha" type="matrix" values="0 0 0 0 0 0 0 0 0 0 0 0 0 0 0 0 0 0 127 0" result="hardAlpha"/>
<feOffset dy="2"/>
<feGaussianBlur stdDeviation="3"/>
<feComposite in2="hardAlpha" operator="out"/>
<feColorMatrix type="matrix" values="0 0 0 0 0 0 0 0 0 0 0 0 0 0 0 0 0 0 0.3 0"/>
<feBlend mode="normal" in2="BackgroundImageFix" result="effect1_dropShadow_1782_53607"/>
<feColorMatrix in="SourceAlpha" type="matrix" values="0 0 0 0 0 0 0 0 0 0 0 0 0 0 0 0 0 0 127 0" result="hardAlpha"/>
<feOffset/>
<feGaussianBlur stdDeviation="1"/>
<feComposite in2="hardAlpha" operator="out"/>
<feColorMatrix type="matrix" values="0 0 0 0 0 0 0 0 0 0 0 0 0 0 0 0 0 0 0.1 0"/>
<feBlend mode="normal" in2="effect1_dropShadow_1782_53607" result="effect2_dropShadow_1782_53607"/>
<feBlend mode="normal" in="SourceGraphic" in2="effect2_dropShadow_1782_53607" result="shape"/>
</filter>
<linearGradient id="paint0_linear_1782_53607" x1="17.5294" y1="-3" x2="73.2685" y2="16.8966" gradientUnits="userSpaceOnUse">
<stop stop-color="white"/>
<stop offset="0.724931" stop-color="#E1E2E0"/>
<stop offset="1" stop-color="#C8C9C7"/>
</linearGradient>
<linearGradient id="paint1_linear_1782_53607" x1="0.544062" y1="40.4745" x2="49.7272" y2="2.44086" gradientUnits="userSpaceOnUse">
<stop stop-color="white"/>
<stop offset="0.75" stop-color="#E1E2E0"/>
<stop offset="1" stop-color="#C8C9C7"/>
</linearGradient>
</defs>
</svg>
