<svg width="68" height="68" viewBox="0 0 68 68" fill="none" xmlns="http://www.w3.org/2000/svg">
<g filter="url(#filter0_dd_1740_69699)">
<mask id="mask0_1740_69699" style="mask-type:alpha" maskUnits="userSpaceOnUse" x="6" y="4" width="56" height="56">
<path d="M11 4H57.0588L62 8.94118V55.0588L57.0588 60H11L6 55V9L11 4Z" fill="url(#paint0_linear_1740_69699)"/>
</mask>
<g mask="url(#mask0_1740_69699)">
<rect width="79.196" height="79.196" transform="matrix(0.866025 0.5 0.5 -0.866025 -20.0918 46.4939)" fill="url(#paint1_linear_1740_69699)"/>
</g>
</g>
<g clip-path="url(#clip0_1740_69699)">
<path d="M22.5713 42.9525V21.8738C22.5713 20.1648 24.576 19.2431 25.8732 20.3556L38.3043 31.0161C39.242 31.8202 39.2338 33.2737 38.287 34.0672L25.8559 44.4854C24.5543 45.5763 22.5713 44.6508 22.5713 42.9525Z" stroke="#646464" stroke-width="2" stroke-linecap="round"/>
<path d="M43.1426 18.2856V45.7142" stroke="#FFCC00" stroke-width="2" stroke-linecap="round"/>
</g>
<defs>
<filter id="filter0_dd_1740_69699" x="0" y="0" width="68" height="68" filterUnits="userSpaceOnUse" color-interpolation-filters="sRGB">
<feFlood flood-opacity="0" result="BackgroundImageFix"/>
<feColorMatrix in="SourceAlpha" type="matrix" values="0 0 0 0 0 0 0 0 0 0 0 0 0 0 0 0 0 0 127 0" result="hardAlpha"/>
<feOffset dy="2"/>
<feGaussianBlur stdDeviation="3"/>
<feComposite in2="hardAlpha" operator="out"/>
<feColorMatrix type="matrix" values="0 0 0 0 0 0 0 0 0 0 0 0 0 0 0 0 0 0 0.3 0"/>
<feBlend mode="normal" in2="BackgroundImageFix" result="effect1_dropShadow_1740_69699"/>
<feColorMatrix in="SourceAlpha" type="matrix" values="0 0 0 0 0 0 0 0 0 0 0 0 0 0 0 0 0 0 127 0" result="hardAlpha"/>
<feOffset/>
<feGaussianBlur stdDeviation="1"/>
<feComposite in2="hardAlpha" operator="out"/>
<feColorMatrix type="matrix" values="0 0 0 0 0 0 0 0 0 0 0 0 0 0 0 0 0 0 0.1 0"/>
<feBlend mode="normal" in2="effect1_dropShadow_1740_69699" result="effect2_dropShadow_1740_69699"/>
<feBlend mode="normal" in="SourceGraphic" in2="effect2_dropShadow_1740_69699" result="shape"/>
</filter>
<linearGradient id="paint0_linear_1740_69699" x1="17.5294" y1="-3" x2="73.2685" y2="16.8966" gradientUnits="userSpaceOnUse">
<stop stop-color="white"/>
<stop offset="0.724931" stop-color="#E1E2E0"/>
<stop offset="1" stop-color="#C8C9C7"/>
</linearGradient>
<linearGradient id="paint1_linear_1740_69699" x1="0.544062" y1="40.4745" x2="49.7272" y2="2.44086" gradientUnits="userSpaceOnUse">
<stop stop-color="white"/>
<stop offset="0.75" stop-color="#E1E2E0"/>
<stop offset="1" stop-color="#C8C9C7"/>
</linearGradient>
<clipPath id="clip0_1740_69699">
<rect width="32" height="32" fill="white" transform="translate(18 16)"/>
</clipPath>
</defs>
</svg>
