<svg width="68" height="68" viewBox="0 0 68 68" fill="none" xmlns="http://www.w3.org/2000/svg">
<g filter="url(#filter0_dd_1740_69761)">
<mask id="mask0_1740_69761" style="mask-type:alpha" maskUnits="userSpaceOnUse" x="6" y="4" width="56" height="56">
<path d="M11 4H57.0588L62 8.94118V55.0588L57.0588 60H11L6 55V9L11 4Z" fill="url(#paint0_linear_1740_69761)"/>
</mask>
<g mask="url(#mask0_1740_69761)">
<rect width="79.196" height="79.196" transform="matrix(0.866025 0.5 0.5 -0.866025 -20.0918 46.4939)" fill="url(#paint1_linear_1740_69761)"/>
</g>
</g>
<path d="M28.6667 20H24.6667C23.9594 20 23.2811 20.281 22.781 20.781C22.281 21.2811 22 21.9594 22 22.6667V26.6667M46 26.6667V22.6667C46 21.9594 45.719 21.2811 45.219 20.781C44.7189 20.281 44.0406 20 43.3333 20H39.3333M39.3333 44H43.3333C44.0406 44 44.7189 43.719 45.219 43.219C45.719 42.7189 46 42.0406 46 41.3333V37.3333M22 37.3333V41.3333C22 42.0406 22.281 42.7189 22.781 43.219C23.2811 43.719 23.9594 44 24.6667 44H28.6667" stroke="#646464" stroke-width="2" stroke-linecap="round" stroke-linejoin="round"/>
<path d="M28.6667 20H24.6667C23.9594 20 23.2811 20.281 22.781 20.781C22.281 21.2811 22 21.9594 22 22.6667V26.6667M39.3333 44H43.3333C44.0406 44 44.7189 43.719 45.219 43.219C45.719 42.7189 46 42.0406 46 41.3333V37.3333" stroke="#FFCC00" stroke-width="2" stroke-linecap="round" stroke-linejoin="round"/>
<defs>
<filter id="filter0_dd_1740_69761" x="0" y="0" width="68" height="68" filterUnits="userSpaceOnUse" color-interpolation-filters="sRGB">
<feFlood flood-opacity="0" result="BackgroundImageFix"/>
<feColorMatrix in="SourceAlpha" type="matrix" values="0 0 0 0 0 0 0 0 0 0 0 0 0 0 0 0 0 0 127 0" result="hardAlpha"/>
<feOffset dy="2"/>
<feGaussianBlur stdDeviation="3"/>
<feComposite in2="hardAlpha" operator="out"/>
<feColorMatrix type="matrix" values="0 0 0 0 0 0 0 0 0 0 0 0 0 0 0 0 0 0 0.3 0"/>
<feBlend mode="normal" in2="BackgroundImageFix" result="effect1_dropShadow_1740_69761"/>
<feColorMatrix in="SourceAlpha" type="matrix" values="0 0 0 0 0 0 0 0 0 0 0 0 0 0 0 0 0 0 127 0" result="hardAlpha"/>
<feOffset/>
<feGaussianBlur stdDeviation="1"/>
<feComposite in2="hardAlpha" operator="out"/>
<feColorMatrix type="matrix" values="0 0 0 0 0 0 0 0 0 0 0 0 0 0 0 0 0 0 0.1 0"/>
<feBlend mode="normal" in2="effect1_dropShadow_1740_69761" result="effect2_dropShadow_1740_69761"/>
<feBlend mode="normal" in="SourceGraphic" in2="effect2_dropShadow_1740_69761" result="shape"/>
</filter>
<linearGradient id="paint0_linear_1740_69761" x1="17.5294" y1="-3" x2="73.2685" y2="16.8966" gradientUnits="userSpaceOnUse">
<stop stop-color="white"/>
<stop offset="0.724931" stop-color="#E1E2E0"/>
<stop offset="1" stop-color="#C8C9C7"/>
</linearGradient>
<linearGradient id="paint1_linear_1740_69761" x1="0.544062" y1="40.4745" x2="49.7272" y2="2.44086" gradientUnits="userSpaceOnUse">
<stop stop-color="white"/>
<stop offset="0.75" stop-color="#E1E2E0"/>
<stop offset="1" stop-color="#C8C9C7"/>
</linearGradient>
</defs>
</svg>
